<svg width="160" height="89" viewBox="0 0 160 89" fill="none" xmlns="http://www.w3.org/2000/svg">
<path d="M0 87.3633V1.46484H27.832C38.3789 1.46484 45.2539 1.89453 48.457 2.75391C53.3789 4.04297 57.5 6.85547 60.8203 11.1914C64.1406 15.4883 65.8008 21.0547 65.8008 27.8906C65.8008 33.1641 64.8438 37.5977 62.9297 41.1914C61.0156 44.7852 58.5742 47.6172 55.6055 49.6875C52.6758 51.7188 49.6875 53.0664 46.6406 53.7305C42.5 54.5508 36.5039 54.9609 28.6523 54.9609H17.3438V87.3633H0ZM17.3438 15.9961V40.3711H26.8359C33.6719 40.3711 38.2422 39.9219 40.5469 39.0234C42.8516 38.125 44.6484 36.7188 45.9375 34.8047C47.2656 32.8906 47.9297 30.6641 47.9297 28.125C47.9297 25 47.0117 22.4219 45.1758 20.3906C43.3398 18.3594 41.0156 17.0898 38.2031 16.582C36.1328 16.1914 31.9727 15.9961 25.7227 15.9961H17.3438Z" fill="#A9BCDB"/>
<path d="M76.5234 44.9414C76.5234 36.1914 77.832 28.8477 80.4492 22.9102C82.4023 18.5352 85.0586 14.6094 88.418 11.1328C91.8164 7.65625 95.5273 5.07812 99.5508 3.39844C104.902 1.13281 111.074 0 118.066 0C130.723 0 140.84 3.92578 148.418 11.7773C156.035 19.6289 159.844 30.5469 159.844 44.5312C159.844 58.3984 156.074 69.2578 148.535 77.1094C140.996 84.9219 130.918 88.8281 118.301 88.8281C105.527 88.8281 95.3711 84.9414 87.832 77.168C80.293 69.3555 76.5234 58.6133 76.5234 44.9414ZM94.3945 44.3555C94.3945 54.082 96.6406 61.4648 101.133 66.5039C105.625 71.5039 111.328 74.0039 118.242 74.0039C125.156 74.0039 130.82 71.5234 135.234 66.5625C139.688 61.5625 141.914 54.082 141.914 44.1211C141.914 34.2773 139.746 26.9336 135.41 22.0898C131.113 17.2461 125.391 14.8242 118.242 14.8242C111.094 14.8242 105.332 17.2852 100.957 22.207C96.582 27.0898 94.3945 34.4727 94.3945 44.3555Z" fill="#A9BCDB"/>
</svg>
