<?xml version="1.0" standalone="no"?>
<!DOCTYPE svg PUBLIC "-//W3C//DTD SVG 20010904//EN"
 "http://www.w3.org/TR/2001/REC-SVG-20010904/DTD/svg10.dtd">
<svg version="1.0" xmlns="http://www.w3.org/2000/svg"
 width="1280.000000pt" height="1280.000000pt" viewBox="0 0 1280.000000 1280.000000"
 preserveAspectRatio="xMidYMid meet">
<metadata>
Created by potrace 1.14, written by Peter Selinger 2001-2017
</metadata>
<g transform="translate(0.000000,1280.000000) scale(0.100000,-0.100000)"
fill="#000000" stroke="none">
<path d="M9178 9955 c-2 -2 -43 -6 -93 -9 -138 -10 -165 -13 -355 -40 -25 -4
-53 -9 -63 -12 -10 -3 -30 -7 -45 -9 -15 -2 -60 -11 -101 -20 -40 -10 -78 -18
-85 -20 -6 -1 -18 -4 -26 -7 -8 -3 -58 -18 -110 -32 -105 -30 -290 -96 -360
-128 -135 -62 -366 -188 -405 -220 -5 -4 -49 -37 -98 -73 -48 -35 -94 -70
-101 -77 -8 -7 -27 -23 -43 -35 -15 -12 -48 -40 -73 -64 -125 -117 -160 -151
-160 -154 0 -1 -28 -33 -62 -70 -96 -101 -192 -223 -268 -335 -8 -12 -20 -28
-27 -35 -7 -7 -9 -15 -6 -19 4 -3 1 -6 -5 -6 -7 0 -12 -7 -12 -15 0 -8 -4 -15
-10 -15 -5 0 -10 -7 -10 -15 0 -8 -4 -15 -10 -15 -5 0 -10 -4 -10 -9 0 -5 -18
-39 -40 -75 -22 -36 -40 -70 -40 -76 0 -5 -4 -10 -10 -10 -5 0 -10 -8 -10 -18
0 -10 -4 -22 -10 -28 -14 -14 -87 -167 -121 -254 -16 -41 -34 -84 -39 -95 -9
-21 -59 -168 -65 -195 -2 -8 -13 -46 -24 -84 -25 -84 -75 -311 -86 -391 -5
-37 -16 -103 -21 -130 -2 -11 -6 -40 -8 -65 -3 -25 -8 -62 -11 -82 -33 -205
-39 -894 -10 -1158 2 -19 7 -62 10 -95 4 -33 8 -71 10 -85 2 -14 6 -47 9 -73
3 -27 8 -52 10 -56 3 -4 8 -30 12 -57 3 -27 8 -56 9 -64 2 -8 11 -49 20 -90 9
-41 18 -82 20 -91 2 -8 10 -40 19 -70 9 -30 16 -55 16 -56 0 -2 0 -4 1 -5 0
-2 2 -11 4 -20 4 -20 62 -202 75 -233 56 -140 98 -239 117 -277 13 -27 24 -51
24 -55 2 -13 58 -111 126 -223 87 -143 87 -143 96 -154 59 -81 99 -134 110
-146 7 -8 29 -35 48 -59 19 -24 45 -57 59 -71 84 -91 178 -185 231 -232 34
-29 69 -60 78 -69 26 -27 222 -171 281 -208 30 -18 66 -41 80 -51 14 -9 57
-34 95 -54 39 -21 76 -43 83 -48 6 -6 12 -7 12 -4 0 4 15 -3 33 -16 17 -13 33
-21 35 -20 1 2 22 -6 45 -17 23 -10 69 -30 102 -44 33 -13 69 -28 80 -32 11
-5 22 -9 25 -10 20 -5 87 -29 95 -34 6 -3 12 -6 15 -7 17 -3 67 -17 80 -21 8
-3 20 -7 25 -8 6 -2 28 -8 50 -14 22 -6 43 -11 47 -11 4 -1 22 -6 40 -11 18
-6 44 -12 58 -15 13 -3 56 -12 95 -20 38 -9 79 -17 90 -18 11 -2 40 -7 65 -11
25 -4 56 -9 70 -10 14 -2 45 -6 70 -9 95 -13 129 -16 245 -22 221 -13 588 -7
735 11 19 2 58 6 85 9 28 4 66 8 85 11 19 3 49 7 65 9 17 2 44 6 60 10 17 3
41 8 55 11 133 25 265 58 323 80 20 8 37 13 37 11 0 -22 556 211 580 243 3 3
19 13 35 21 34 17 157 92 165 100 3 3 32 23 64 45 316 213 641 566 846 920 94
161 233 463 255 550 1 6 5 17 8 25 42 103 120 411 152 595 2 17 7 39 9 50 2
11 7 43 10 70 4 28 8 61 11 75 4 24 13 102 20 182 33 363 24 901 -20 1198 -3
19 -8 51 -10 70 -3 19 -7 46 -10 60 -3 14 -8 41 -10 60 -5 39 -12 77 -31 160
-3 14 -7 34 -9 45 -5 35 -52 206 -83 305 -32 102 -52 156 -111 305 -30 74
-162 331 -212 412 -73 118 -155 236 -187 269 -13 13 -20 24 -17 24 3 0 -3 8
-12 19 -10 10 -45 49 -78 87 -69 80 -243 253 -305 304 -23 19 -47 40 -54 45
-6 6 -31 26 -56 45 -25 19 -47 37 -50 40 -9 10 -185 127 -255 170 -67 40 -366
190 -380 190 -4 0 -21 6 -38 14 -66 29 -239 88 -293 101 -10 2 -35 9 -54 14
-54 15 -154 40 -181 45 -13 2 -35 7 -49 10 -33 8 -76 15 -125 21 -22 3 -51 8
-65 11 -14 3 -43 7 -65 9 -22 2 -62 6 -90 10 -27 3 -70 8 -95 11 -48 6 -636
14 -642 9z m437 -1185 c44 -2 84 -6 89 -8 5 -3 29 -6 54 -8 26 -2 58 -6 72 -9
14 -4 43 -9 65 -11 22 -3 45 -10 52 -16 7 -6 13 -8 13 -5 0 7 104 -19 150 -38
223 -88 277 -115 410 -207 174 -119 337 -282 437 -436 21 -31 41 -59 44 -62 7
-5 28 -46 100 -193 60 -120 111 -261 144 -397 30 -123 44 -185 50 -225 2 -11
8 -54 15 -95 6 -41 13 -97 16 -125 2 -27 6 -68 9 -90 17 -138 22 -449 11 -665
-11 -188 -14 -225 -42 -425 -1 -11 -3 -20 -4 -20 -2 0 -7 -26 -14 -75 -3 -23
-7 -44 -10 -48 -2 -4 -7 -25 -10 -47 -9 -58 -75 -282 -101 -340 -7 -16 -16
-41 -20 -55 -10 -31 -72 -164 -82 -174 -5 -4 -8 -11 -8 -15 0 -8 -80 -145 -96
-165 -5 -6 -32 -42 -60 -81 -156 -211 -384 -399 -626 -518 -51 -25 -93 -43
-93 -40 0 3 -6 1 -12 -4 -18 -15 -201 -74 -228 -75 -3 0 -15 -4 -27 -9 -13 -5
-42 -11 -65 -14 -49 -7 -83 -13 -83 -15 0 -2 -245 -22 -270 -22 -55 1 -275 12
-292 16 -11 2 -43 8 -70 12 -239 34 -479 128 -688 267 -49 33 -92 62 -95 66
-3 3 -23 19 -45 36 -58 42 -236 223 -282 286 -120 163 -163 237 -258 444 -37
81 -97 273 -130 416 -34 150 -69 401 -69 487 0 17 -2 32 -6 32 -7 0 -4 605 3
670 3 25 9 79 12 120 4 41 9 84 11 95 2 11 6 37 9 59 9 66 12 84 52 266 11 51
12 55 13 55 1 0 3 10 5 21 13 67 85 263 141 382 19 41 34 78 34 83 0 5 5 9 10
9 6 0 10 5 10 10 0 17 79 139 148 228 85 111 205 230 318 317 14 11 32 26 39
33 8 6 16 12 20 12 3 0 21 11 38 24 56 42 187 112 282 150 126 51 180 67 315
95 137 28 154 30 265 37 55 4 101 7 102 8 2 2 139 -1 228 -4z"/>
<path d="M10 9842 c-7 -3 -10 -1158 -10 -3438 l0 -3434 693 0 694 1 0 1289 c0
710 3 1293 6 1297 4 3 316 7 694 9 379 1 735 5 793 8 58 4 143 8 189 11 169 9
397 32 516 52 17 2 39 6 50 8 11 1 36 6 55 9 19 4 44 9 55 11 11 2 20 4 20 5
0 1 11 3 25 6 28 5 174 51 205 64 11 5 43 18 70 30 28 12 82 38 120 58 39 20
80 41 92 46 13 6 23 14 23 19 0 4 5 7 10 7 14 0 194 120 198 131 2 5 7 9 11 9
22 0 301 275 301 296 0 6 20 31 43 52 9 9 17 22 17 29 0 7 4 13 9 13 5 0 13 9
16 20 3 11 12 26 19 32 46 48 167 287 214 423 45 131 69 225 87 335 1 8 5 35
9 60 27 170 38 500 21 655 -4 33 -8 80 -10 105 -7 98 -47 301 -83 420 -49 162
-130 338 -220 475 -107 164 -295 368 -437 475 -33 25 -66 51 -73 58 -7 6 -17
12 -22 12 -5 0 -15 6 -22 13 -31 29 -308 170 -316 162 -3 -3 -10 -1 -17 5 -16
13 -220 75 -237 72 -4 -1 -18 2 -31 7 -13 5 -46 12 -73 15 -27 3 -62 8 -79 10
-16 2 -56 7 -87 10 -32 3 -83 9 -113 12 -31 3 -88 7 -128 9 -40 2 -124 7 -187
10 -63 4 -191 8 -285 10 -93 2 -172 4 -175 5 -3 1 -18 2 -35 1 -16 -1 -48 -1
-70 0 -91 3 -2536 4 -2545 1z m1726 -1162 c10 4 31 4 46 -1 14 -4 29 -5 31 -3
3 3 31 5 63 4 87 -1 87 -1 109 0 11 1 52 1 90 1 39 0 75 0 80 0 40 1 549 -13
585 -15 166 -13 238 -19 255 -22 21 -4 56 -11 105 -19 83 -14 298 -103 308
-127 2 -5 8 -8 14 -8 35 0 212 -175 273 -269 37 -58 89 -171 101 -220 2 -9 8
-34 13 -56 17 -70 24 -138 23 -240 -1 -96 -4 -134 -18 -200 -10 -51 -12 -60
-14 -62 -2 -2 -3 -6 -4 -10 -15 -57 -28 -93 -36 -98 -6 -3 -10 -14 -10 -23 -1
-19 -60 -119 -105 -177 -107 -139 -270 -254 -437 -309 -45 -15 -63 -19 -125
-31 -16 -3 -34 -8 -41 -10 -7 -3 -39 -7 -70 -11 -31 -3 -68 -7 -82 -10 -14 -2
-59 -7 -100 -10 -41 -3 -93 -8 -115 -10 -75 -9 -1285 -16 -1286 -8 -1 12 -1
1904 0 1926 1 15 16 18 129 20 70 2 143 0 163 -3 19 -3 44 -3 55 1z"/>
</g>
</svg>
